<svg xmlns="http://www.w3.org/2000/svg" viewBox="0 0 10.02 9.47"><title>Asset 1</title><g id="Layer_2" data-name="Layer 2"><g id="Layer_1-2" data-name="Layer 1"><g id="Isolation_Mode" data-name="Isolation Mode"><path d="M6.74,8.89a.14.14,0,0,1-.11-.06L4.9,6.49a.14.14,0,0,1,0-.2.14.14,0,0,1,.19,0,.07.07,0,0,1,0,0L6.85,8.67a.14.14,0,0,1,0,.19Z"/><path d="M5.3,9.46H4.9a2.64,2.64,0,0,1-1.71-1L.53,4.8A2.64,2.64,0,0,1,0,2.86,2.66,2.66,0,0,1,1,1.15L1.37.93A.62.62,0,0,1,1.84.82a.56.56,0,0,1,.41.25L3.41,2.64a.71.71,0,0,1,.15.52.69.69,0,0,1-.25.48L2.86,4,4.6,6.4l.51-.32A.75.75,0,0,1,5.64,6a.71.71,0,0,1,.46.29L7.26,7.85a.62.62,0,0,1-.13.88L6.84,9A2.63,2.63,0,0,1,5.3,9.46ZM1.76,1.25a.15.15,0,0,0-.13,0l-.29.21A2.2,2.2,0,0,0,.48,2.92a2.23,2.23,0,0,0,.4,1.62l2.66,3.6A2.17,2.17,0,0,0,5,9a2.07,2.07,0,0,0,1.61-.4l.29-.21A.22.22,0,0,0,7,8.26a.17.17,0,0,0,0-.14L5.75,6.54a.25.25,0,0,0-.19-.12.28.28,0,0,0-.22,0l-.68.41a.23.23,0,0,1-.29,0l-2-2.68a.22.22,0,0,1,0-.3L3,3.31a.26.26,0,0,0,.1-.2A.28.28,0,0,0,3,2.89L1.9,1.33a.2.2,0,0,0-.13-.08Z"/><path d="M3,3.78a.14.14,0,0,1-.11-.06L1.13,1.38a.13.13,0,0,1,0-.18h0a.13.13,0,0,1,.18,0L3.07,3.56a.14.14,0,0,1,0,.19A.11.11,0,0,1,3,3.78Z"/><path d="M6.91,6.37H6.83a.18.18,0,0,1-.1-.19l.13-.87A2.73,2.73,0,0,1,4.29,2.66,2.79,2.79,0,0,1,7.17,0,2.78,2.78,0,0,1,10,2.66,2.67,2.67,0,0,1,8,5.17L7,6.31A.2.2,0,0,1,6.91,6.37Zm.26-6a2.43,2.43,0,0,0-2.52,2.3A2.39,2.39,0,0,0,7.08,4.94.26.26,0,0,1,7.21,5a.17.17,0,0,1,0,.14l-.08.47.66-.73h.09A2.3,2.3,0,0,0,9.69,2.66,2.42,2.42,0,0,0,7.17.36Z"/><path d="M7.61,4.35H6.72a.18.18,0,0,1-.17-.18V3.36H5.73a.18.18,0,0,1-.18-.18V2.29a.18.18,0,0,1,.18-.18h.82V1.3a.19.19,0,0,1,.17-.18h.89a.18.18,0,0,1,.18.18v.81H8.6a.18.18,0,0,1,.18.18h0v.89a.18.18,0,0,1-.18.18H7.79v.81A.18.18,0,0,1,7.61,4.35ZM6.9,4h.53V3.18A.18.18,0,0,1,7.61,3h.81V2.47H7.61a.18.18,0,0,1-.18-.18V1.48H6.9v.81a.18.18,0,0,1-.18.18H5.91V3h.81a.18.18,0,0,1,.18.18Z"/></g></g></g></svg>